<?xml version="1.0" encoding="UTF-8" standalone="no"?><!-- Generator: Gravit.io --><svg xmlns="http://www.w3.org/2000/svg" xmlns:xlink="http://www.w3.org/1999/xlink" style="isolation:isolate" viewBox="0 0 400 400" width="400pt" height="400pt"><defs><clipPath id="_clipPath_Eorm5xs3AYHzrDLxGIzSsDNZKoqYIV9R"><rect width="400" height="400"/></clipPath></defs><g clip-path="url(#_clipPath_Eorm5xs3AYHzrDLxGIzSsDNZKoqYIV9R)"><g><g><path d=" M 79.535 184.25 L 77.069 188.477 L 77.069 188.477 Q 76.628 189.123 76.144 189.446 L 76.144 189.446 L 76.144 189.446 Q 75.659 189.769 74.896 189.769 L 74.896 189.769 L 74.896 189.769 Q 74.221 189.769 73.443 189.378 L 73.443 189.378 L 73.443 189.378 Q 72.665 188.988 71.681 188.503 L 71.681 188.503 L 71.681 188.503 Q 70.697 188.019 69.435 187.628 L 69.435 187.628 L 69.435 187.628 Q 68.172 187.238 66.557 187.238 L 66.557 187.238 L 66.557 187.238 Q 63.768 187.238 62.403 188.328 L 62.403 188.328 L 62.403 188.328 Q 61.037 189.419 61.037 191.277 L 61.037 191.277 L 61.037 191.277 Q 61.037 192.461 61.859 193.242 L 61.859 193.242 L 61.859 193.242 Q 62.681 194.023 64.017 194.588 L 64.017 194.588 L 64.017 194.588 Q 65.353 195.154 67.071 195.625 L 67.071 195.625 L 67.071 195.625 Q 68.789 196.096 70.58 196.675 L 70.58 196.675 L 70.58 196.675 Q 72.371 197.254 74.089 198.034 L 74.089 198.034 L 74.089 198.034 Q 75.806 198.815 77.142 200.027 L 77.142 200.027 L 77.142 200.027 Q 78.478 201.238 79.3 202.975 L 79.3 202.975 L 79.3 202.975 Q 80.122 204.711 80.122 207.161 L 80.122 207.161 L 80.122 207.161 Q 80.122 209.881 79.095 212.25 L 79.095 212.25 L 79.095 212.25 Q 78.067 214.619 76.115 216.383 L 76.115 216.383 L 76.115 216.383 Q 74.162 218.146 71.299 219.156 L 71.299 219.156 L 71.299 219.156 Q 68.436 220.165 64.796 220.165 L 64.796 220.165 L 64.796 220.165 Q 62.799 220.165 60.729 219.788 L 60.729 219.788 L 60.729 219.788 Q 58.659 219.411 56.721 218.725 L 56.721 218.725 L 56.721 218.725 Q 54.783 218.038 53.08 217.096 L 53.08 217.096 L 53.08 217.096 Q 51.377 216.154 50.115 214.996 L 50.115 214.996 L 53.051 210.742 L 53.051 210.742 Q 53.374 210.257 53.961 209.961 L 53.961 209.961 L 53.961 209.961 Q 54.548 209.665 55.224 209.665 L 55.224 209.665 L 55.224 209.665 Q 56.104 209.665 57 210.177 L 57 210.177 L 57 210.177 Q 57.895 210.688 59.026 211.307 L 59.026 211.307 L 59.026 211.307 Q 60.156 211.927 61.624 212.438 L 61.624 212.438 L 61.624 212.438 Q 63.093 212.95 65.089 212.95 L 65.089 212.95 L 65.089 212.95 Q 67.79 212.95 69.288 211.859 L 69.288 211.859 L 69.288 211.859 Q 70.785 210.769 70.785 208.4 L 70.785 208.4 L 70.785 208.4 Q 70.785 207.027 69.963 206.165 L 69.963 206.165 L 69.963 206.165 Q 69.141 205.304 67.805 204.738 L 67.805 204.738 L 67.805 204.738 Q 66.469 204.173 64.766 203.742 L 64.766 203.742 L 64.766 203.742 Q 63.063 203.311 61.272 202.786 L 61.272 202.786 L 61.272 202.786 Q 59.481 202.261 57.778 201.494 L 57.778 201.494 L 57.778 201.494 Q 56.075 200.727 54.739 199.475 L 54.739 199.475 L 54.739 199.475 Q 53.403 198.223 52.581 196.352 L 52.581 196.352 L 52.581 196.352 Q 51.759 194.48 51.759 191.734 L 51.759 191.734 L 51.759 191.734 Q 51.759 189.527 52.728 187.427 L 52.728 187.427 L 52.728 187.427 Q 53.697 185.327 55.576 183.684 L 55.576 183.684 L 55.576 183.684 Q 57.455 182.042 60.186 181.059 L 60.186 181.059 L 60.186 181.059 Q 62.916 180.076 66.44 180.076 L 66.44 180.076 L 66.44 180.076 Q 68.407 180.076 70.272 180.359 L 70.272 180.359 L 70.272 180.359 Q 72.136 180.642 73.81 181.194 L 73.81 181.194 L 73.81 181.194 Q 75.483 181.746 76.937 182.513 L 76.937 182.513 L 76.937 182.513 Q 78.39 183.28 79.535 184.25 L 79.535 184.25 Z " fill="rgb(0,0,0)"/><g><path d=" M 90.438 180.076 L 120.258 180.076 L 120.258 187.45 L 109.7 187.45 L 109.7 220.165 L 100.996 220.165 L 100.996 187.45 L 90.438 187.45 L 90.438 180.076 Z " fill="rgb(0,0,0)"/></g><path d=" M 140.971 205.404 L 138.812 205.404 L 138.812 220.201 L 130.325 220.201 L 130.325 180.202 L 142.226 180.202 L 142.226 180.202 Q 146.193 180.202 148.992 181.094 L 148.992 181.094 L 148.992 181.094 Q 151.792 181.986 153.562 183.579 L 153.562 183.579 L 153.562 183.579 Q 155.332 185.171 156.135 187.34 L 156.135 187.34 L 156.135 187.34 Q 156.939 189.508 156.939 192.062 L 156.939 192.062 L 156.939 192.062 Q 156.939 194.011 156.462 195.74 L 156.462 195.74 L 156.462 195.74 Q 155.985 197.47 155.043 198.938 L 155.043 198.938 L 155.043 198.938 Q 154.102 200.407 152.733 201.56 L 152.733 201.56 L 152.733 201.56 Q 151.365 202.713 149.583 203.454 L 149.583 203.454 L 149.583 203.454 Q 150.436 203.921 151.177 204.607 L 151.177 204.607 L 151.177 204.607 Q 151.917 205.294 152.47 206.282 L 152.47 206.282 L 160.253 220.201 L 152.57 220.201 L 152.57 220.201 Q 150.436 220.201 149.507 218.444 L 149.507 218.444 L 143.431 206.831 L 143.431 206.831 Q 143.03 206.062 142.49 205.733 L 142.49 205.733 L 142.49 205.733 Q 141.95 205.404 140.971 205.404 L 140.971 205.404 Z " fill="rgb(0,0,0)"/><path d=" M 138.498 187.615 L 138.498 198.022 L 141.763 198.022 L 141.763 198.022 Q 143.419 198.022 144.584 197.601 L 144.584 197.601 L 144.584 197.601 Q 145.748 197.179 146.492 196.432 L 146.492 196.432 L 146.492 196.432 Q 147.236 195.685 147.572 194.686 L 147.572 194.686 L 147.572 194.686 Q 147.908 193.686 147.908 192.529 L 147.908 192.529 L 147.908 192.529 Q 147.908 190.217 146.408 188.916 L 146.408 188.916 L 146.408 188.916 Q 144.908 187.615 141.763 187.615 L 141.763 187.615 L 138.498 187.615 Z " fill="rgb(255,255,255)"/><path d=" M 170.506 180.171 L 200.154 180.171 L 200.154 187.248 L 181.253 187.248 L 181.253 196.502 L 195.729 196.502 L 195.729 203.307 L 181.253 203.307 L 181.253 212.752 L 200.154 212.752 L 200.154 219.828 L 170.506 219.828 L 170.506 180.171 Z " fill="rgb(0,0,0)"/><path d=" M 228.691 180.359 L 240.008 220.165 L 234.751 220.165 L 234.751 220.165 Q 233.868 220.165 233.296 219.605 L 233.296 219.605 L 233.296 219.605 Q 232.724 219.045 232.503 218.171 L 232.503 218.171 L 230.778 211.231 L 219.66 211.231 L 217.935 218.171 L 217.935 218.171 Q 217.734 218.936 217.152 219.551 L 217.152 219.551 L 217.152 219.551 Q 216.57 220.165 215.727 220.165 L 215.727 220.165 L 210.43 220.165 L 221.747 180.359 L 228.691 180.359 Z " fill="rgb(0,0,0)"/><path d=" M 223.514 194.901 L 220.297 204.465 L 229.852 204.465 L 226.635 194.853 L 226.635 194.853 Q 226.323 193.937 225.903 192.697 L 225.903 192.697 L 225.903 192.697 Q 225.483 191.456 225.075 190.01 L 225.075 190.01 L 225.075 190.01 Q 224.69 191.48 224.282 192.733 L 224.282 192.733 L 224.282 192.733 Q 223.874 193.985 223.514 194.901 L 223.514 194.901 Z " fill="rgb(255,255,255)"/><path d=" M 268.533 201.614 L 268.533 201.614 L 268.533 201.614 Q 269.013 202.645 269.457 203.757 L 269.457 203.757 L 269.457 203.757 Q 269.901 204.869 270.309 206.035 L 270.309 206.035 L 270.309 206.035 Q 270.717 204.841 271.174 203.716 L 271.174 203.716 L 271.174 203.716 Q 271.63 202.591 272.11 201.533 L 272.11 201.533 L 281.088 181.574 L 281.088 181.574 Q 281.328 181.058 281.58 180.774 L 281.58 180.774 L 281.58 180.774 Q 281.832 180.489 282.144 180.353 L 282.144 180.353 L 282.144 180.353 Q 282.457 180.218 282.853 180.218 L 282.853 180.218 L 282.853 180.218 Q 283.249 180.218 283.777 180.218 L 283.777 180.218 L 289.971 180.218 L 289.971 219.661 L 282.817 219.661 L 282.817 196.959 L 282.817 196.959 Q 282.817 195.307 282.961 193.384 L 282.961 193.384 L 273.694 213.674 L 273.694 213.674 Q 273.262 214.622 272.53 215.11 L 272.53 215.11 L 272.53 215.11 Q 271.798 215.598 270.861 215.598 L 270.861 215.598 L 269.757 215.598 L 269.757 215.598 Q 268.821 215.598 268.089 215.11 L 268.089 215.11 L 268.089 215.11 Q 267.357 214.622 266.924 213.674 L 266.924 213.674 L 257.61 193.356 L 257.61 193.356 Q 257.706 194.305 257.754 195.239 L 257.754 195.239 L 257.754 195.239 Q 257.802 196.174 257.802 196.959 L 257.802 196.959 L 257.802 219.661 L 250.648 219.661 L 250.648 180.218 L 256.842 180.218 L 256.842 180.218 Q 257.37 180.218 257.766 180.218 L 257.766 180.218 L 257.766 180.218 Q 258.162 180.218 258.474 180.353 L 258.474 180.353 L 258.474 180.353 Q 258.786 180.489 259.038 180.774 L 259.038 180.774 L 259.038 180.774 Q 259.29 181.058 259.53 181.574 L 259.53 181.574 L 268.533 201.614 Z " fill="rgb(0,0,0)"/><path d=" M 310.246 180.171 L 310.246 220.111 L 300.587 220.111 L 300.587 180.171 L 310.246 180.171 Z " fill="rgb(0,0,0)"/><path d=" M 319.822 220.197 L 330.046 199.646 L 320.214 180.22 L 327.582 180.22 L 327.582 180.22 Q 328.302 180.22 328.64 180.453 L 328.64 180.453 L 328.64 180.453 Q 328.977 180.686 329.239 181.235 L 329.239 181.235 L 335.561 194.707 L 335.561 194.707 Q 335.67 194.35 335.812 194.021 L 335.812 194.021 L 335.812 194.021 Q 335.953 193.692 336.128 193.335 L 336.128 193.335 L 341.665 181.372 L 341.665 181.372 Q 342.21 180.22 343.147 180.22 L 343.147 180.22 L 350.21 180.22 L 340.248 199.234 L 350.428 220.197 L 343.06 220.197 L 343.06 220.197 Q 342.34 220.197 341.894 219.758 L 341.894 219.758 L 341.894 219.758 Q 341.447 219.319 341.185 218.715 L 341.185 218.715 L 334.82 204.722 L 334.82 204.722 Q 334.645 205.325 334.427 205.764 L 334.427 205.764 L 328.498 218.715 L 328.498 218.715 Q 328.236 219.291 327.8 219.744 L 327.8 219.744 L 327.8 219.744 Q 327.364 220.197 326.71 220.197 L 326.71 220.197 L 319.822 220.197 Z " fill="rgb(0,0,0)"/></g></g></g></svg>