<?xml version="1.0" encoding="UTF-8" standalone="no"?><!-- Generator: Gravit.io --><svg xmlns="http://www.w3.org/2000/svg" xmlns:xlink="http://www.w3.org/1999/xlink" style="isolation:isolate" viewBox="0 0 400 400" width="400pt" height="400pt"><defs><clipPath id="_clipPath_5Bdt4hkLM91mVKq70knHERP2REjR20Bx"><rect width="400" height="400"/></clipPath></defs><g clip-path="url(#_clipPath_5Bdt4hkLM91mVKq70knHERP2REjR20Bx)"><g><g><path d=" M 89.327 184.041 L 86.861 188.268 L 86.861 188.268 Q 86.42 188.914 85.936 189.237 L 85.936 189.237 L 85.936 189.237 Q 85.451 189.561 84.688 189.561 L 84.688 189.561 L 84.688 189.561 Q 84.012 189.561 83.234 189.17 L 83.234 189.17 L 83.234 189.17 Q 82.456 188.78 81.473 188.295 L 81.473 188.295 L 81.473 188.295 Q 80.489 187.811 79.226 187.42 L 79.226 187.42 L 79.226 187.42 Q 77.964 187.03 76.349 187.03 L 76.349 187.03 L 76.349 187.03 Q 73.56 187.03 72.194 188.12 L 72.194 188.12 L 72.194 188.12 Q 70.829 189.211 70.829 191.068 L 70.829 191.068 L 70.829 191.068 Q 70.829 192.253 71.651 193.034 L 71.651 193.034 L 71.651 193.034 Q 72.473 193.814 73.809 194.38 L 73.809 194.38 L 73.809 194.38 Q 75.145 194.945 76.863 195.416 L 76.863 195.416 L 76.863 195.416 Q 78.58 195.887 80.372 196.466 L 80.372 196.466 L 80.372 196.466 Q 82.163 197.045 83.88 197.826 L 83.88 197.826 L 83.88 197.826 Q 85.598 198.607 86.934 199.818 L 86.934 199.818 L 86.934 199.818 Q 88.27 201.03 89.092 202.766 L 89.092 202.766 L 89.092 202.766 Q 89.914 204.503 89.914 206.953 L 89.914 206.953 L 89.914 206.953 Q 89.914 209.672 88.886 212.041 L 88.886 212.041 L 88.886 212.041 Q 87.859 214.411 85.906 216.174 L 85.906 216.174 L 85.906 216.174 Q 83.954 217.938 81.091 218.947 L 81.091 218.947 L 81.091 218.947 Q 78.228 219.957 74.587 219.957 L 74.587 219.957 L 74.587 219.957 Q 72.591 219.957 70.521 219.58 L 70.521 219.58 L 70.521 219.58 Q 68.451 219.203 66.513 218.516 L 66.513 218.516 L 66.513 218.516 Q 64.575 217.83 62.872 216.888 L 62.872 216.888 L 62.872 216.888 Q 61.169 215.945 59.906 214.788 L 59.906 214.788 L 62.842 210.534 L 62.842 210.534 Q 63.165 210.049 63.753 209.753 L 63.753 209.753 L 63.753 209.753 Q 64.34 209.457 65.015 209.457 L 65.015 209.457 L 65.015 209.457 Q 65.896 209.457 66.792 209.968 L 66.792 209.968 L 66.792 209.968 Q 67.687 210.48 68.818 211.099 L 68.818 211.099 L 68.818 211.099 Q 69.948 211.718 71.416 212.23 L 71.416 212.23 L 71.416 212.23 Q 72.884 212.741 74.881 212.741 L 74.881 212.741 L 74.881 212.741 Q 77.582 212.741 79.08 211.651 L 79.08 211.651 L 79.08 211.651 Q 80.577 210.561 80.577 208.191 L 80.577 208.191 L 80.577 208.191 Q 80.577 206.818 79.755 205.957 L 79.755 205.957 L 79.755 205.957 Q 78.933 205.095 77.597 204.53 L 77.597 204.53 L 77.597 204.53 Q 76.261 203.964 74.558 203.534 L 74.558 203.534 L 74.558 203.534 Q 72.855 203.103 71.064 202.578 L 71.064 202.578 L 71.064 202.578 Q 69.273 202.053 67.57 201.286 L 67.57 201.286 L 67.57 201.286 Q 65.867 200.518 64.531 199.266 L 64.531 199.266 L 64.531 199.266 Q 63.195 198.014 62.373 196.143 L 62.373 196.143 L 62.373 196.143 Q 61.551 194.272 61.551 191.526 L 61.551 191.526 L 61.551 191.526 Q 61.551 189.318 62.519 187.218 L 62.519 187.218 L 62.519 187.218 Q 63.488 185.118 65.368 183.476 L 65.368 183.476 L 65.368 183.476 Q 67.247 181.834 69.977 180.851 L 69.977 180.851 L 69.977 180.851 Q 72.708 179.868 76.231 179.868 L 76.231 179.868 L 76.231 179.868 Q 78.199 179.868 80.063 180.151 L 80.063 180.151 L 80.063 180.151 Q 81.928 180.434 83.601 180.985 L 83.601 180.985 L 83.601 180.985 Q 85.275 181.537 86.728 182.305 L 86.728 182.305 L 86.728 182.305 Q 88.182 183.072 89.327 184.041 L 89.327 184.041 Z " fill="rgb(0,0,0)"/><g><path d=" M 100.229 179.868 L 130.05 179.868 L 130.05 187.242 L 119.492 187.242 L 119.492 219.957 L 110.788 219.957 L 110.788 187.242 L 100.229 187.242 L 100.229 179.868 Z " fill="rgb(0,0,0)"/></g><path d=" M 150.762 205.195 L 148.603 205.195 L 148.603 219.992 L 140.117 219.992 L 140.117 179.994 L 152.018 179.994 L 152.018 179.994 Q 155.985 179.994 158.784 180.886 L 158.784 180.886 L 158.784 180.886 Q 161.584 181.778 163.354 183.37 L 163.354 183.37 L 163.354 183.37 Q 165.124 184.963 165.927 187.131 L 165.927 187.131 L 165.927 187.131 Q 166.731 189.3 166.731 191.853 L 166.731 191.853 L 166.731 191.853 Q 166.731 193.802 166.253 195.532 L 166.253 195.532 L 166.253 195.532 Q 165.776 197.261 164.835 198.73 L 164.835 198.73 L 164.835 198.73 Q 163.893 200.199 162.525 201.352 L 162.525 201.352 L 162.525 201.352 Q 161.157 202.505 159.374 203.246 L 159.374 203.246 L 159.374 203.246 Q 160.228 203.713 160.968 204.399 L 160.968 204.399 L 160.968 204.399 Q 161.709 205.085 162.261 206.074 L 162.261 206.074 L 170.045 219.992 L 162.362 219.992 L 162.362 219.992 Q 160.228 219.992 159.299 218.235 L 159.299 218.235 L 153.223 206.623 L 153.223 206.623 Q 152.821 205.854 152.281 205.525 L 152.281 205.525 L 152.281 205.525 Q 151.742 205.195 150.762 205.195 L 150.762 205.195 Z " fill="rgb(0,0,0)"/><path d=" M 148.29 187.407 L 148.29 197.814 L 151.554 197.814 L 151.554 197.814 Q 153.211 197.814 154.375 197.392 L 154.375 197.392 L 154.375 197.392 Q 155.539 196.971 156.284 196.224 L 156.284 196.224 L 156.284 196.224 Q 157.028 195.477 157.364 194.477 L 157.364 194.477 L 157.364 194.477 Q 157.7 193.477 157.7 192.321 L 157.7 192.321 L 157.7 192.321 Q 157.7 190.008 156.2 188.707 L 156.2 188.707 L 156.2 188.707 Q 154.699 187.407 151.554 187.407 L 151.554 187.407 L 148.29 187.407 Z " fill="rgb(255,255,255)"/><path d=" M 180.298 179.962 L 209.946 179.962 L 209.946 187.039 L 191.044 187.039 L 191.044 196.294 L 205.521 196.294 L 205.521 203.098 L 191.044 203.098 L 191.044 212.543 L 209.946 212.543 L 209.946 219.62 L 180.298 219.62 L 180.298 179.962 Z " fill="rgb(0,0,0)"/><path d=" M 238.482 180.15 L 249.8 219.957 L 244.542 219.957 L 244.542 219.957 Q 243.66 219.957 243.088 219.397 L 243.088 219.397 L 243.088 219.397 Q 242.516 218.837 242.295 217.962 L 242.295 217.962 L 240.569 211.023 L 229.452 211.023 L 227.726 217.962 L 227.726 217.962 Q 227.526 218.727 226.944 219.342 L 226.944 219.342 L 226.944 219.342 Q 226.362 219.957 225.519 219.957 L 225.519 219.957 L 220.221 219.957 L 231.539 180.15 L 238.482 180.15 Z " fill="rgb(0,0,0)"/><path d=" M 233.306 194.693 L 230.089 204.257 L 239.643 204.257 L 236.427 194.644 L 236.427 194.644 Q 236.115 193.729 235.694 192.488 L 235.694 192.488 L 235.694 192.488 Q 235.274 191.248 234.866 189.802 L 234.866 189.802 L 234.866 189.802 Q 234.482 191.272 234.074 192.524 L 234.074 192.524 L 234.074 192.524 Q 233.666 193.777 233.306 194.693 L 233.306 194.693 Z " fill="rgb(255,255,255)"/><path d=" M 278.325 201.406 L 278.325 201.406 L 278.325 201.406 Q 278.805 202.437 279.249 203.548 L 279.249 203.548 L 279.249 203.548 Q 279.693 204.66 280.101 205.826 L 280.101 205.826 L 280.101 205.826 Q 280.509 204.633 280.965 203.508 L 280.965 203.508 L 280.965 203.508 Q 281.421 202.382 281.901 201.325 L 281.901 201.325 L 290.88 181.365 L 290.88 181.365 Q 291.12 180.85 291.372 180.565 L 291.372 180.565 L 291.372 180.565 Q 291.624 180.281 291.936 180.145 L 291.936 180.145 L 291.936 180.145 Q 292.248 180.009 292.644 180.009 L 292.644 180.009 L 292.644 180.009 Q 293.04 180.009 293.569 180.009 L 293.569 180.009 L 299.762 180.009 L 299.762 219.453 L 292.608 219.453 L 292.608 196.751 L 292.608 196.751 Q 292.608 195.099 292.752 193.175 L 292.752 193.175 L 283.486 213.466 L 283.486 213.466 Q 283.054 214.414 282.322 214.902 L 282.322 214.902 L 282.322 214.902 Q 281.589 215.389 280.653 215.389 L 280.653 215.389 L 279.549 215.389 L 279.549 215.389 Q 278.613 215.389 277.88 214.902 L 277.88 214.902 L 277.88 214.902 Q 277.148 214.414 276.716 213.466 L 276.716 213.466 L 267.402 193.148 L 267.402 193.148 Q 267.498 194.096 267.546 195.031 L 267.546 195.031 L 267.546 195.031 Q 267.594 195.966 267.594 196.751 L 267.594 196.751 L 267.594 219.453 L 260.44 219.453 L 260.44 180.009 L 266.633 180.009 L 266.633 180.009 Q 267.162 180.009 267.558 180.009 L 267.558 180.009 L 267.558 180.009 Q 267.954 180.009 268.266 180.145 L 268.266 180.145 L 268.266 180.145 Q 268.578 180.281 268.83 180.565 L 268.83 180.565 L 268.83 180.565 Q 269.082 180.85 269.322 181.365 L 269.322 181.365 L 278.325 201.406 Z " fill="rgb(0,0,0)"/><path d=" M 320.037 179.962 L 320.037 219.902 L 310.378 219.902 L 310.378 179.962 L 320.037 179.962 Z " fill="rgb(0,0,0)"/><path d=" M 329.613 219.988 L 339.837 199.438 L 330.006 180.012 L 337.374 180.012 L 337.374 180.012 Q 338.093 180.012 338.431 180.245 L 338.431 180.245 L 338.431 180.245 Q 338.769 180.478 339.031 181.027 L 339.031 181.027 L 345.352 194.499 L 345.352 194.499 Q 345.461 194.142 345.603 193.813 L 345.603 193.813 L 345.603 193.813 Q 345.745 193.484 345.919 193.127 L 345.919 193.127 L 351.456 181.164 L 351.456 181.164 Q 352.001 180.012 352.939 180.012 L 352.939 180.012 L 360.002 180.012 L 350.039 199.026 L 360.22 219.988 L 352.852 219.988 L 352.852 219.988 Q 352.132 219.988 351.685 219.549 L 351.685 219.549 L 351.685 219.549 Q 351.238 219.11 350.977 218.507 L 350.977 218.507 L 344.611 204.513 L 344.611 204.513 Q 344.437 205.117 344.219 205.556 L 344.219 205.556 L 338.289 218.507 L 338.289 218.507 Q 338.028 219.083 337.592 219.536 L 337.592 219.536 L 337.592 219.536 Q 337.156 219.988 336.502 219.988 L 336.502 219.988 L 329.613 219.988 Z " fill="rgb(0,0,0)"/></g></g></g></svg>